<svg xmlns="http://www.w3.org/2000/svg" width="1120" height="520" viewBox="0 0 1120 520">
<rect width="100%" height="100%" fill="white"/>
<text x="560.0" y="28" text-anchor="middle" font-family="Arial, sans-serif" font-size="20" font-weight="700">Comprehensive Benchmark Throughput</text>
<text x="18" y="227.0" transform="rotate(-90 18 227.0)" text-anchor="middle" font-family="Arial, sans-serif" font-size="13">Mean ops/sec (log scale)</text>
<line x1="82" y1="402.00" x2="1096" y2="402.00" stroke="#e5e7eb" stroke-width="1"/>
<text x="74" y="406.00" text-anchor="end" font-family="Arial, sans-serif" font-size="11" fill="#374151">0.50</text>
<line x1="82" y1="378.94" x2="1096" y2="378.94" stroke="#e5e7eb" stroke-width="1"/>
<text x="74" y="382.94" text-anchor="end" font-family="Arial, sans-serif" font-size="11" fill="#374151">1.00</text>
<line x1="82" y1="355.88" x2="1096" y2="355.88" stroke="#e5e7eb" stroke-width="1"/>
<text x="74" y="359.88" text-anchor="end" font-family="Arial, sans-serif" font-size="11" fill="#374151">2.00</text>
<line x1="82" y1="325.40" x2="1096" y2="325.40" stroke="#e5e7eb" stroke-width="1"/>
<text x="74" y="329.40" text-anchor="end" font-family="Arial, sans-serif" font-size="11" fill="#374151">5.00</text>
<line x1="82" y1="302.34" x2="1096" y2="302.34" stroke="#e5e7eb" stroke-width="1"/>
<text x="74" y="306.34" text-anchor="end" font-family="Arial, sans-serif" font-size="11" fill="#374151">10.0</text>
<line x1="82" y1="279.28" x2="1096" y2="279.28" stroke="#e5e7eb" stroke-width="1"/>
<text x="74" y="283.28" text-anchor="end" font-family="Arial, sans-serif" font-size="11" fill="#374151">20.0</text>
<line x1="82" y1="248.79" x2="1096" y2="248.79" stroke="#e5e7eb" stroke-width="1"/>
<text x="74" y="252.79" text-anchor="end" font-family="Arial, sans-serif" font-size="11" fill="#374151">50.0</text>
<line x1="82" y1="225.73" x2="1096" y2="225.73" stroke="#e5e7eb" stroke-width="1"/>
<text x="74" y="229.73" text-anchor="end" font-family="Arial, sans-serif" font-size="11" fill="#374151">100</text>
<line x1="82" y1="202.67" x2="1096" y2="202.67" stroke="#e5e7eb" stroke-width="1"/>
<text x="74" y="206.67" text-anchor="end" font-family="Arial, sans-serif" font-size="11" fill="#374151">200</text>
<line x1="82" y1="172.19" x2="1096" y2="172.19" stroke="#e5e7eb" stroke-width="1"/>
<text x="74" y="176.19" text-anchor="end" font-family="Arial, sans-serif" font-size="11" fill="#374151">500</text>
<line x1="82" y1="149.13" x2="1096" y2="149.13" stroke="#e5e7eb" stroke-width="1"/>
<text x="74" y="153.13" text-anchor="end" font-family="Arial, sans-serif" font-size="11" fill="#374151">1.0k</text>
<line x1="82" y1="126.07" x2="1096" y2="126.07" stroke="#e5e7eb" stroke-width="1"/>
<text x="74" y="130.07" text-anchor="end" font-family="Arial, sans-serif" font-size="11" fill="#374151">2.0k</text>
<line x1="82" y1="95.58" x2="1096" y2="95.58" stroke="#e5e7eb" stroke-width="1"/>
<text x="74" y="99.58" text-anchor="end" font-family="Arial, sans-serif" font-size="11" fill="#374151">5.0k</text>
<line x1="82" y1="72.52" x2="1096" y2="72.52" stroke="#e5e7eb" stroke-width="1"/>
<text x="74" y="76.52" text-anchor="end" font-family="Arial, sans-serif" font-size="11" fill="#374151">10.0k</text>
<line x1="82" y1="402" x2="1096" y2="402" stroke="#111827"/>
<line x1="82" y1="52" x2="82" y2="402" stroke="#111827"/>
<rect x="111.50" y="119.83" width="34.00" height="282.17" fill="#4c78a8"/>
<rect x="149.50" y="64.39" width="34.00" height="337.61" fill="#f58518"/>
<rect x="187.50" y="65.20" width="34.00" height="336.80" fill="#54a24b"/>
<text x="166.50" y="424" text-anchor="middle" font-family="Arial, sans-serif" font-size="11" fill="#111827">IOR/mdtest</text>
<rect x="280.50" y="237.78" width="34.00" height="164.22" fill="#4c78a8"/>
<rect x="318.50" y="145.76" width="34.00" height="256.24" fill="#f58518"/>
<rect x="356.50" y="195.39" width="34.00" height="206.61" fill="#54a24b"/>
<text x="335.50" y="424" text-anchor="middle" font-family="Arial, sans-serif" font-size="11" fill="#111827">Filebench-like</text>
<rect x="449.50" y="186.87" width="34.00" height="215.13" fill="#4c78a8"/>
<rect x="487.50" y="179.42" width="34.00" height="222.58" fill="#f58518"/>
<rect x="525.50" y="59.42" width="34.00" height="342.58" fill="#54a24b"/>
<text x="504.50" y="424" text-anchor="middle" font-family="Arial, sans-serif" font-size="11" fill="#111827">Zipf hotdirs</text>
<rect x="618.50" y="186.98" width="34.00" height="215.02" fill="#4c78a8"/>
<rect x="656.50" y="148.72" width="34.00" height="253.28" fill="#f58518"/>
<rect x="694.50" y="135.49" width="34.00" height="266.51" fill="#54a24b"/>
<text x="673.50" y="424" text-anchor="middle" font-family="Arial, sans-serif" font-size="11" fill="#111827">70% cold / 10% access</text>
<rect x="787.50" y="185.61" width="34.00" height="216.39" fill="#4c78a8"/>
<rect x="825.50" y="145.50" width="34.00" height="256.50" fill="#f58518"/>
<rect x="863.50" y="142.83" width="34.00" height="259.17" fill="#54a24b"/>
<text x="842.50" y="424" text-anchor="middle" font-family="Arial, sans-serif" font-size="11" fill="#111827">90% cold / 10% access</text>
<rect x="956.50" y="185.23" width="34.00" height="216.77" fill="#4c78a8"/>
<rect x="994.50" y="157.08" width="34.00" height="244.92" fill="#f58518"/>
<rect x="1032.50" y="147.40" width="34.00" height="254.60" fill="#54a24b"/>
<text x="1011.50" y="424" text-anchor="middle" font-family="Arial, sans-serif" font-size="11" fill="#111827">90% cold / 20% access</text>
<rect x="82" y="477" width="14" height="14" fill="#4c78a8"/>
<text x="102" y="488" font-family="Arial, sans-serif" font-size="12">native</text>
<rect x="202" y="477" width="14" height="14" fill="#f58518"/>
<text x="222" y="488" font-family="Arial, sans-serif" font-size="12">oracle</text>
<rect x="322" y="477" width="14" height="14" fill="#54a24b"/>
<text x="342" y="488" font-family="Arial, sans-serif" font-size="12">predictor</text>
</svg>
