<svg xmlns="http://www.w3.org/2000/svg" width="1120" height="520" viewBox="0 0 1120 520">
<rect width="100%" height="100%" fill="white"/>
<text x="560.0" y="28" text-anchor="middle" font-family="Arial, sans-serif" font-size="20" font-weight="700">Speedup Relative to Native</text>
<text x="18" y="227.0" transform="rotate(-90 18 227.0)" text-anchor="middle" font-family="Arial, sans-serif" font-size="13">Speedup vs native (log scale)</text>
<line x1="82" y1="402.00" x2="1096" y2="402.00" stroke="#e5e7eb" stroke-width="1"/>
<text x="74" y="406.00" text-anchor="end" font-family="Arial, sans-serif" font-size="11" fill="#374151">0.50</text>
<line x1="82" y1="350.89" x2="1096" y2="350.89" stroke="#e5e7eb" stroke-width="1"/>
<text x="74" y="354.89" text-anchor="end" font-family="Arial, sans-serif" font-size="11" fill="#374151">1.00</text>
<line x1="82" y1="299.79" x2="1096" y2="299.79" stroke="#e5e7eb" stroke-width="1"/>
<text x="74" y="303.79" text-anchor="end" font-family="Arial, sans-serif" font-size="11" fill="#374151">2.00</text>
<line x1="82" y1="232.23" x2="1096" y2="232.23" stroke="#e5e7eb" stroke-width="1"/>
<text x="74" y="236.23" text-anchor="end" font-family="Arial, sans-serif" font-size="11" fill="#374151">5.00</text>
<line x1="82" y1="181.13" x2="1096" y2="181.13" stroke="#e5e7eb" stroke-width="1"/>
<text x="74" y="185.13" text-anchor="end" font-family="Arial, sans-serif" font-size="11" fill="#374151">10.0</text>
<line x1="82" y1="130.02" x2="1096" y2="130.02" stroke="#e5e7eb" stroke-width="1"/>
<text x="74" y="134.02" text-anchor="end" font-family="Arial, sans-serif" font-size="11" fill="#374151">20.0</text>
<line x1="82" y1="62.46" x2="1096" y2="62.46" stroke="#e5e7eb" stroke-width="1"/>
<text x="74" y="66.46" text-anchor="end" font-family="Arial, sans-serif" font-size="11" fill="#374151">50.0</text>
<line x1="82" y1="402" x2="1096" y2="402" stroke="#111827"/>
<line x1="82" y1="52" x2="82" y2="402" stroke="#111827"/>
<rect x="111.50" y="350.89" width="34.00" height="51.11" fill="#4c78a8"/>
<rect x="149.50" y="228.01" width="34.00" height="173.99" fill="#f58518"/>
<rect x="187.50" y="229.82" width="34.00" height="172.18" fill="#54a24b"/>
<text x="166.50" y="424" text-anchor="middle" font-family="Arial, sans-serif" font-size="11" fill="#111827">IOR/mdtest</text>
<rect x="280.50" y="350.89" width="34.00" height="51.11" fill="#4c78a8"/>
<rect x="318.50" y="146.94" width="34.00" height="255.06" fill="#f58518"/>
<rect x="356.50" y="256.93" width="34.00" height="145.07" fill="#54a24b"/>
<text x="335.50" y="424" text-anchor="middle" font-family="Arial, sans-serif" font-size="11" fill="#111827">Filebench-like</text>
<rect x="449.50" y="350.89" width="34.00" height="51.11" fill="#4c78a8"/>
<rect x="487.50" y="334.40" width="34.00" height="67.60" fill="#f58518"/>
<rect x="525.50" y="68.45" width="34.00" height="333.55" fill="#54a24b"/>
<text x="504.50" y="424" text-anchor="middle" font-family="Arial, sans-serif" font-size="11" fill="#111827">Zipf hotdirs</text>
<rect x="618.50" y="350.89" width="34.00" height="51.11" fill="#4c78a8"/>
<rect x="656.50" y="266.12" width="34.00" height="135.88" fill="#f58518"/>
<rect x="694.50" y="236.80" width="34.00" height="165.20" fill="#54a24b"/>
<text x="673.50" y="424" text-anchor="middle" font-family="Arial, sans-serif" font-size="11" fill="#111827">70% cold / 10% access</text>
<rect x="787.50" y="350.89" width="34.00" height="51.11" fill="#4c78a8"/>
<rect x="825.50" y="262.01" width="34.00" height="139.99" fill="#f58518"/>
<rect x="863.50" y="256.08" width="34.00" height="145.92" fill="#54a24b"/>
<text x="842.50" y="424" text-anchor="middle" font-family="Arial, sans-serif" font-size="11" fill="#111827">90% cold / 10% access</text>
<rect x="956.50" y="350.89" width="34.00" height="51.11" fill="#4c78a8"/>
<rect x="994.50" y="288.52" width="34.00" height="113.48" fill="#f58518"/>
<rect x="1032.50" y="267.06" width="34.00" height="134.94" fill="#54a24b"/>
<text x="1011.50" y="424" text-anchor="middle" font-family="Arial, sans-serif" font-size="11" fill="#111827">90% cold / 20% access</text>
<rect x="82" y="477" width="14" height="14" fill="#4c78a8"/>
<text x="102" y="488" font-family="Arial, sans-serif" font-size="12">native</text>
<rect x="202" y="477" width="14" height="14" fill="#f58518"/>
<text x="222" y="488" font-family="Arial, sans-serif" font-size="12">oracle</text>
<rect x="322" y="477" width="14" height="14" fill="#54a24b"/>
<text x="342" y="488" font-family="Arial, sans-serif" font-size="12">predictor</text>
</svg>
