<svg xmlns="http://www.w3.org/2000/svg" width="980" height="430" viewBox="0 0 980 430">
<rect width="100%" height="100%" fill="white"/>
<text x="490.0" y="26" text-anchor="middle" font-family="Arial" font-size="20" font-weight="700">Direct external benchmark throughput</text>
<line x1="82" y1="338" x2="958" y2="338" stroke="#333"/>
<line x1="82" y1="48" x2="82" y2="338" stroke="#333"/>
<line x1="77" y1="258.5" x2="958" y2="258.5" stroke="#ddd"/>
<text x="73" y="262.5" text-anchor="end" font-family="Arial" font-size="11" fill="#333">1000</text>
<line x1="77" y1="122.9" x2="958" y2="122.9" stroke="#ddd"/>
<text x="73" y="126.9" text-anchor="end" font-family="Arial" font-size="11" fill="#333">10000</text>
<text transform="translate(18 193.0) rotate(-90)" text-anchor="middle" font-family="Arial" font-size="13">Mean ops/s</text>
<rect x="138.0" y="210.2" width="34.0" height="127.8" fill="#6b6ecf"/>
<text x="155.0" y="206.2" text-anchor="middle" font-family="Arial" font-size="10" fill="#333">2.3k</text>
<text x="155.0" y="374" text-anchor="middle" font-family="Arial" font-size="12">mdtest 3k</text>
<rect x="284.0" y="217.4" width="34.0" height="120.6" fill="#6b6ecf"/>
<text x="301.0" y="213.4" text-anchor="middle" font-family="Arial" font-size="10" fill="#333">2.0k</text>
<text x="301.0" y="374" text-anchor="middle" font-family="Arial" font-size="12">mdtest 10k</text>
<rect x="430.0" y="303.9" width="34.0" height="34.1" fill="#6b6ecf"/>
<text x="447.0" y="299.9" text-anchor="middle" font-family="Arial" font-size="10" fill="#333">462.8</text>
<text x="447.0" y="374" text-anchor="middle" font-family="Arial" font-size="12">Filebench fileserver</text>
<rect x="576.0" y="321.1" width="34.0" height="16.9" fill="#6b6ecf"/>
<text x="593.0" y="317.1" text-anchor="middle" font-family="Arial" font-size="10" fill="#333">345.7</text>
<text x="593.0" y="374" text-anchor="middle" font-family="Arial" font-size="12">Filebench varmail</text>
<rect x="722.0" y="61.1" width="34.0" height="276.9" fill="#6b6ecf"/>
<text x="739.0" y="57.1" text-anchor="middle" font-family="Arial" font-size="10" fill="#333">28.6k</text>
<text x="739.0" y="374" text-anchor="middle" font-family="Arial" font-size="12">IOR 16MiB</text>
<rect x="868.0" y="72.7" width="34.0" height="265.3" fill="#6b6ecf"/>
<text x="885.0" y="68.7" text-anchor="middle" font-family="Arial" font-size="10" fill="#333">23.5k</text>
<text x="885.0" y="374" text-anchor="middle" font-family="Arial" font-size="12">IOR 512MiB</text>
<rect x="82" y="395" width="12" height="12" fill="#6b6ecf"/>
<text x="100" y="406" font-family="Arial" font-size="12">external</text>
</svg>