<svg xmlns="http://www.w3.org/2000/svg" width="920" height="430" viewBox="0 0 920 430">
<rect width="100%" height="100%" fill="white"/>
<text x="460.0" y="26" text-anchor="middle" font-family="Arial" font-size="20" font-weight="700">Paper-ready in-repo throughput</text>
<line x1="82" y1="338" x2="898" y2="338" stroke="#333"/>
<line x1="82" y1="48" x2="82" y2="338" stroke="#333"/>
<line x1="77" y1="313.7" x2="898" y2="313.7" stroke="#ddd"/>
<text x="73" y="317.7" text-anchor="end" font-family="Arial" font-size="11" fill="#333">100</text>
<line x1="77" y1="191.2" x2="898" y2="191.2" stroke="#ddd"/>
<text x="73" y="195.2" text-anchor="end" font-family="Arial" font-size="11" fill="#333">1000</text>
<line x1="77" y1="68.7" x2="898" y2="68.7" stroke="#ddd"/>
<text x="73" y="72.7" text-anchor="end" font-family="Arial" font-size="11" fill="#333">10000</text>
<text transform="translate(18 193.0) rotate(-90)" text-anchor="middle" font-family="Arial" font-size="13">Mean ops/s</text>
<rect x="107.6" y="233.1" width="34.0" height="104.9" fill="#4c78a8"/>
<text x="124.6" y="229.1" text-anchor="middle" font-family="Arial" font-size="10" fill="#333">455.5</text>
<rect x="146.6" y="59.9" width="34.0" height="278.1" fill="#f58518"/>
<text x="163.6" y="55.9" text-anchor="middle" font-family="Arial" font-size="10" fill="#333">11.8k</text>
<rect x="185.6" y="62.5" width="34.0" height="275.5" fill="#54a24b"/>
<text x="202.6" y="58.5" text-anchor="middle" font-family="Arial" font-size="10" fill="#333">11.2k</text>
<text x="163.6" y="374" text-anchor="middle" font-family="Arial" font-size="12">Recreated mdtest</text>
<rect x="270.8" y="322.7" width="34.0" height="15.3" fill="#4c78a8"/>
<text x="287.8" y="318.7" text-anchor="middle" font-family="Arial" font-size="10" fill="#333">84.5</text>
<rect x="309.8" y="193.6" width="34.0" height="144.4" fill="#f58518"/>
<text x="326.8" y="189.6" text-anchor="middle" font-family="Arial" font-size="10" fill="#333">956.2</text>
<rect x="348.8" y="257.7" width="34.0" height="80.3" fill="#54a24b"/>
<text x="365.8" y="253.7" text-anchor="middle" font-family="Arial" font-size="10" fill="#333">286.9</text>
<text x="326.8" y="374" text-anchor="middle" font-family="Arial" font-size="12">Recreated varmail</text>
<rect x="434.0" y="270.5" width="34.0" height="67.5" fill="#4c78a8"/>
<text x="451.0" y="266.5" text-anchor="middle" font-family="Arial" font-size="10" fill="#333">225.6</text>
<rect x="473.0" y="234.7" width="34.0" height="103.3" fill="#f58518"/>
<text x="490.0" y="230.7" text-anchor="middle" font-family="Arial" font-size="10" fill="#333">442.1</text>
<rect x="512.0" y="236.6" width="34.0" height="101.4" fill="#54a24b"/>
<text x="529.0" y="232.6" text-anchor="middle" font-family="Arial" font-size="10" fill="#333">426.2</text>
<text x="490.0" y="374" text-anchor="middle" font-family="Arial" font-size="12">YCSB Zipfian</text>
<rect x="597.2" y="265.3" width="34.0" height="72.7" fill="#4c78a8"/>
<text x="614.2" y="261.3" text-anchor="middle" font-family="Arial" font-size="10" fill="#333">248.7</text>
<rect x="636.2" y="221.3" width="34.0" height="116.7" fill="#f58518"/>
<text x="653.2" y="217.3" text-anchor="middle" font-family="Arial" font-size="10" fill="#333">568.6</text>
<rect x="675.2" y="218.9" width="34.0" height="119.1" fill="#54a24b"/>
<text x="692.2" y="214.9" text-anchor="middle" font-family="Arial" font-size="10" fill="#333">594.0</text>
<text x="653.2" y="374" text-anchor="middle" font-family="Arial" font-size="12">YCSB hotspot</text>
<rect x="760.4" y="242.2" width="34.0" height="95.8" fill="#4c78a8"/>
<text x="777.4" y="238.2" text-anchor="middle" font-family="Arial" font-size="10" fill="#333">383.5</text>
<rect x="799.4" y="192.7" width="34.0" height="145.3" fill="#f58518"/>
<text x="816.4" y="188.7" text-anchor="middle" font-family="Arial" font-size="10" fill="#333">972.6</text>
<rect x="838.4" y="177.7" width="34.0" height="160.3" fill="#54a24b"/>
<text x="855.4" y="173.7" text-anchor="middle" font-family="Arial" font-size="10" fill="#333">1.3k</text>
<text x="816.4" y="374" text-anchor="middle" font-family="Arial" font-size="12">Hot/cold 90/10</text>
<rect x="82" y="395" width="12" height="12" fill="#4c78a8"/>
<text x="100" y="406" font-family="Arial" font-size="12">native</text>
<rect x="187" y="395" width="12" height="12" fill="#f58518"/>
<text x="205" y="406" font-family="Arial" font-size="12">oracle</text>
<rect x="292" y="395" width="12" height="12" fill="#54a24b"/>
<text x="310" y="406" font-family="Arial" font-size="12">predictor</text>
</svg>