<svg xmlns="http://www.w3.org/2000/svg" width="760" height="430" viewBox="0 0 760 430">
<rect width="100%" height="100%" fill="white"/>
<text x="380.0" y="26" text-anchor="middle" font-family="Arial" font-size="20" font-weight="700">Predictor hot-directory precision</text>
<line x1="82" y1="338" x2="738" y2="338" stroke="#333"/>
<line x1="82" y1="48" x2="82" y2="338" stroke="#333"/>
<line x1="77" y1="338.0" x2="738" y2="338.0" stroke="#ddd"/>
<text x="73" y="342.0" text-anchor="end" font-family="Arial" font-size="11" fill="#333">0.0</text>
<line x1="77" y1="280.0" x2="738" y2="280.0" stroke="#ddd"/>
<text x="73" y="284.0" text-anchor="end" font-family="Arial" font-size="11" fill="#333">0.1</text>
<line x1="77" y1="222.0" x2="738" y2="222.0" stroke="#ddd"/>
<text x="73" y="226.0" text-anchor="end" font-family="Arial" font-size="11" fill="#333">0.2</text>
<line x1="77" y1="164.0" x2="738" y2="164.0" stroke="#ddd"/>
<text x="73" y="168.0" text-anchor="end" font-family="Arial" font-size="11" fill="#333">0.2</text>
<line x1="77" y1="106.0" x2="738" y2="106.0" stroke="#ddd"/>
<text x="73" y="110.0" text-anchor="end" font-family="Arial" font-size="11" fill="#333">0.3</text>
<line x1="77" y1="48.0" x2="738" y2="48.0" stroke="#ddd"/>
<text x="73" y="52.0" text-anchor="end" font-family="Arial" font-size="11" fill="#333">0.4</text>
<text transform="translate(18 193.0) rotate(-90)" text-anchor="middle" font-family="Arial" font-size="13">Precision</text>
<rect x="130.6" y="338.0" width="34.0" height="0.0" fill="#e45756"/>
<text x="147.6" y="334.0" text-anchor="middle" font-family="Arial" font-size="10" fill="#333">0.0</text>
<text x="147.6" y="374" text-anchor="middle" font-family="Arial" font-size="12">Recreated mdtest</text>
<rect x="261.8" y="338.0" width="34.0" height="0.0" fill="#e45756"/>
<text x="278.8" y="334.0" text-anchor="middle" font-family="Arial" font-size="10" fill="#333">0.0</text>
<text x="278.8" y="374" text-anchor="middle" font-family="Arial" font-size="12">Recreated varmail</text>
<rect x="393.0" y="291.4" width="34.0" height="46.6" fill="#e45756"/>
<text x="410.0" y="287.4" text-anchor="middle" font-family="Arial" font-size="10" fill="#333">0.1</text>
<text x="410.0" y="374" text-anchor="middle" font-family="Arial" font-size="12">YCSB Zipfian</text>
<rect x="524.2" y="291.4" width="34.0" height="46.6" fill="#e45756"/>
<text x="541.2" y="287.4" text-anchor="middle" font-family="Arial" font-size="10" fill="#333">0.1</text>
<text x="541.2" y="374" text-anchor="middle" font-family="Arial" font-size="12">YCSB hotspot</text>
<rect x="655.4" y="85.8" width="34.0" height="252.2" fill="#e45756"/>
<text x="672.4" y="81.8" text-anchor="middle" font-family="Arial" font-size="10" fill="#333">0.3</text>
<text x="672.4" y="374" text-anchor="middle" font-family="Arial" font-size="12">Hot/cold 90/10</text>
<rect x="82" y="395" width="12" height="12" fill="#e45756"/>
<text x="100" y="406" font-family="Arial" font-size="12">precision</text>
</svg>