<svg xmlns="http://www.w3.org/2000/svg" width="1120" height="680" viewBox="0 0 1120 680">
<rect width="100%" height="100%" fill="#ffffff"/>
<text x="105" y="36" font-family="Arial" font-size="24" font-weight="700" fill="#222">Tail latency against default and static baselines</text>
<text x="105" y="62" font-family="Arial" font-size="15" fill="#555">Lower is better. Pinning variants mainly hurt create-heavy paths.</text>
<line x1="105" x2="860" y1="565.0" y2="565.0" stroke="#e6e6e6"/>
<text x="93" y="570.0" font-family="Arial" font-size="13" text-anchor="end" fill="#555">0</text>
<line x1="105" x2="860" y1="470.0" y2="470.0" stroke="#e6e6e6"/>
<text x="93" y="475.0" font-family="Arial" font-size="13" text-anchor="end" fill="#555">44</text>
<line x1="105" x2="860" y1="375.0" y2="375.0" stroke="#e6e6e6"/>
<text x="93" y="380.0" font-family="Arial" font-size="13" text-anchor="end" fill="#555">89</text>
<line x1="105" x2="860" y1="280.0" y2="280.0" stroke="#e6e6e6"/>
<text x="93" y="285.0" font-family="Arial" font-size="13" text-anchor="end" fill="#555">133</text>
<line x1="105" x2="860" y1="185.0" y2="185.0" stroke="#e6e6e6"/>
<text x="93" y="190.0" font-family="Arial" font-size="13" text-anchor="end" fill="#555">178</text>
<line x1="105" x2="860" y1="90.0" y2="90.0" stroke="#e6e6e6"/>
<text x="93" y="95.0" font-family="Arial" font-size="13" text-anchor="end" fill="#555">222</text>
<line x1="105" x2="105" y1="90" y2="565" stroke="#333"/>
<line x1="105" x2="860" y1="565" y2="565" stroke="#333"/>
<text x="30" y="327.5" transform="rotate(-90 30 327.5)" font-family="Arial" font-size="15" fill="#333" text-anchor="middle">Weighted p95 latency (ms)</text>
<rect x="171.8" y="463.1" width="44.0" height="101.9" fill="#2f6fbb"/>
<text x="193.8" y="458.1" font-family="Arial" font-size="11" text-anchor="middle" fill="#333">48</text>
<rect x="221.8" y="406.6" width="44.0" height="158.4" fill="#c44e52"/>
<text x="243.8" y="401.6" font-family="Arial" font-size="11" text-anchor="middle" fill="#333">74</text>
<rect x="271.8" y="401.4" width="44.0" height="163.6" fill="#dd8452"/>
<text x="293.8" y="396.4" font-family="Arial" font-size="11" text-anchor="middle" fill="#333">76</text>
<rect x="321.8" y="465.8" width="44.0" height="99.2" fill="#55a868"/>
<text x="343.8" y="460.8" font-family="Arial" font-size="11" text-anchor="middle" fill="#333">46</text>
<rect x="371.8" y="431.8" width="44.0" height="133.2" fill="#8172b2"/>
<text x="393.8" y="426.8" font-family="Arial" font-size="11" text-anchor="middle" fill="#333">62</text>
<text x="293.8" y="600" font-family="Arial" font-size="15" text-anchor="middle" fill="#222">Small dirs/files</text>
<rect x="549.2" y="465.2" width="44.0" height="99.8" fill="#2f6fbb"/>
<text x="571.2" y="460.2" font-family="Arial" font-size="11" text-anchor="middle" fill="#333">47</text>
<rect x="599.2" y="183.3" width="44.0" height="381.7" fill="#c44e52"/>
<text x="621.2" y="178.3" font-family="Arial" font-size="11" text-anchor="middle" fill="#333">178</text>
<rect x="649.2" y="162.5" width="44.0" height="402.5" fill="#dd8452"/>
<text x="671.2" y="157.5" font-family="Arial" font-size="11" text-anchor="middle" fill="#333">188</text>
<rect x="699.2" y="200.4" width="44.0" height="364.6" fill="#55a868"/>
<text x="721.2" y="195.4" font-family="Arial" font-size="11" text-anchor="middle" fill="#333">170</text>
<rect x="749.2" y="435.9" width="44.0" height="129.1" fill="#8172b2"/>
<text x="771.2" y="430.9" font-family="Arial" font-size="11" text-anchor="middle" fill="#333">60</text>
<text x="671.2" y="600" font-family="Arial" font-size="15" text-anchor="middle" fill="#222">Hot directory skew</text>
<rect x="895" y="97" width="16" height="16" fill="#2f6fbb"/>
<text x="919" y="110" font-family="Arial" font-size="14" fill="#333">Default</text>
<rect x="895" y="125" width="16" height="16" fill="#c44e52"/>
<text x="919" y="138" font-family="Arial" font-size="14" fill="#333">Static top</text>
<rect x="895" y="153" width="16" height="16" fill="#dd8452"/>
<text x="919" y="166" font-family="Arial" font-size="14" fill="#333">Pre-pin hotset</text>
<rect x="895" y="181" width="16" height="16" fill="#55a868"/>
<text x="919" y="194" font-family="Arial" font-size="14" fill="#333">Predictive safe</text>
<rect x="895" y="209" width="16" height="16" fill="#8172b2"/>
<text x="919" y="222" font-family="Arial" font-size="14" fill="#333">Append segments</text>
</svg>