<svg xmlns="http://www.w3.org/2000/svg" width="1120" height="680" viewBox="0 0 1120 680">
<rect width="100%" height="100%" fill="#ffffff"/>
<text x="105" y="36" font-family="Arial" font-size="24" font-weight="700" fill="#222">Speedup relative to default CephFS</text>
<text x="105" y="62" font-family="Arial" font-size="15" fill="#555">Values below 1.0 are slower than default. Predictive_safe small-dir result had zero pin events.</text>
<line x1="105" x2="860" y1="565.0" y2="565.0" stroke="#e6e6e6"/>
<text x="93" y="570.0" font-family="Arial" font-size="13" text-anchor="end" fill="#555">0.00</text>
<line x1="105" x2="860" y1="470.0" y2="470.0" stroke="#e6e6e6"/>
<text x="93" y="475.0" font-family="Arial" font-size="13" text-anchor="end" fill="#555">0.25</text>
<line x1="105" x2="860" y1="375.0" y2="375.0" stroke="#e6e6e6"/>
<text x="93" y="380.0" font-family="Arial" font-size="13" text-anchor="end" fill="#555">0.50</text>
<line x1="105" x2="860" y1="280.0" y2="280.0" stroke="#e6e6e6"/>
<text x="93" y="285.0" font-family="Arial" font-size="13" text-anchor="end" fill="#555">0.75</text>
<line x1="105" x2="860" y1="185.0" y2="185.0" stroke="#e6e6e6"/>
<text x="93" y="190.0" font-family="Arial" font-size="13" text-anchor="end" fill="#555">1.00</text>
<line x1="105" x2="860" y1="90.0" y2="90.0" stroke="#e6e6e6"/>
<text x="93" y="95.0" font-family="Arial" font-size="13" text-anchor="end" fill="#555">1.25</text>
<line x1="105" x2="105" y1="90" y2="565" stroke="#333"/>
<line x1="105" x2="860" y1="565" y2="565" stroke="#333"/>
<text x="30" y="327.5" transform="rotate(-90 30 327.5)" font-family="Arial" font-size="15" fill="#333" text-anchor="middle">Speedup vs default</text>
<rect x="171.8" y="185.0" width="44.0" height="380.0" fill="#2f6fbb"/>
<text x="193.8" y="180.0" font-family="Arial" font-size="11" text-anchor="middle" fill="#333">1.00</text>
<rect x="221.8" y="246.9" width="44.0" height="318.1" fill="#c44e52"/>
<text x="243.8" y="241.9" font-family="Arial" font-size="11" text-anchor="middle" fill="#333">0.84</text>
<rect x="271.8" y="230.2" width="44.0" height="334.8" fill="#dd8452"/>
<text x="293.8" y="225.2" font-family="Arial" font-size="11" text-anchor="middle" fill="#333">0.88</text>
<rect x="321.8" y="136.0" width="44.0" height="429.0" fill="#55a868"/>
<text x="343.8" y="131.0" font-family="Arial" font-size="11" text-anchor="middle" fill="#333">1.13</text>
<rect x="371.8" y="308.5" width="44.0" height="256.5" fill="#8172b2"/>
<text x="393.8" y="303.5" font-family="Arial" font-size="11" text-anchor="middle" fill="#333">0.68</text>
<text x="293.8" y="600" font-family="Arial" font-size="15" text-anchor="middle" fill="#222">Small dirs/files</text>
<rect x="549.2" y="185.0" width="44.0" height="380.0" fill="#2f6fbb"/>
<text x="571.2" y="180.0" font-family="Arial" font-size="11" text-anchor="middle" fill="#333">1.00</text>
<rect x="599.2" y="445.3" width="44.0" height="119.7" fill="#c44e52"/>
<text x="621.2" y="440.3" font-family="Arial" font-size="11" text-anchor="middle" fill="#333">0.32</text>
<rect x="649.2" y="427.1" width="44.0" height="137.9" fill="#dd8452"/>
<text x="671.2" y="422.1" font-family="Arial" font-size="11" text-anchor="middle" fill="#333">0.36</text>
<rect x="699.2" y="382.2" width="44.0" height="182.8" fill="#55a868"/>
<text x="721.2" y="377.2" font-family="Arial" font-size="11" text-anchor="middle" fill="#333">0.48</text>
<rect x="749.2" y="315.0" width="44.0" height="250.0" fill="#8172b2"/>
<text x="771.2" y="310.0" font-family="Arial" font-size="11" text-anchor="middle" fill="#333">0.66</text>
<text x="671.2" y="600" font-family="Arial" font-size="15" text-anchor="middle" fill="#222">Hot directory skew</text>
<rect x="895" y="97" width="16" height="16" fill="#2f6fbb"/>
<text x="919" y="110" font-family="Arial" font-size="14" fill="#333">Default</text>
<rect x="895" y="125" width="16" height="16" fill="#c44e52"/>
<text x="919" y="138" font-family="Arial" font-size="14" fill="#333">Static top</text>
<rect x="895" y="153" width="16" height="16" fill="#dd8452"/>
<text x="919" y="166" font-family="Arial" font-size="14" fill="#333">Pre-pin hotset</text>
<rect x="895" y="181" width="16" height="16" fill="#55a868"/>
<text x="919" y="194" font-family="Arial" font-size="14" fill="#333">Predictive safe</text>
<rect x="895" y="209" width="16" height="16" fill="#8172b2"/>
<text x="919" y="222" font-family="Arial" font-size="14" fill="#333">Append segments</text>
</svg>